# xmcd
#
# Track frame offsets:
#	150
#	13222
#	30912
#	49457
#	67700
#	87302
#	111860
#	134127
#	156402
#	177017
#	203835
#	227265
#	251755
#	272607
#	292185
#
# Disc length: 4215 seconds
#
# Revision: 1
# Processed by: cddbd v1.5PL3 Copyright (c) Steve Scherf et al.
# Submitted via: CDex 1.50Beta5
#
DISCID=d410750f
DTITLE=椎名林檎 SAKURA 宇多田ヒカル - Virgin Domestic Joint Campaigh 15Songs Selection
DYEAR=1900
DGENRE=
TTITLE0=椎名林檎/歌舞伎町の女王
TTITLE1=椎名林檎/丸の内サディスティック
TTITLE2=椎名林檎/茜さす 帰路照らされど…
TTITLE3=椎名林檎/シドと白昼夢
TTITLE4=椎名林檎/ここでキスして。
TTITLE5=SAKURA/ONLY FOR YOU
TTITLE6=SAKURA/BACK TO BACK
TTITLE7=SAKURA/君のために
TTITLE8=SAKURA/I believe
TTITLE9=SAKURA/愛してる心
TTITLE10=宇多田ヒカル/Automatic
TTITLE11=宇多田ヒカル/time will tell
TTITLE12=宇多田ヒカル/Movin'on without you
TTITLE13=宇多田ヒカル/B&C
TTITLE14=宇多田ヒカル/Another Chance
EXTD=
EXTT0=
EXTT1=
EXTT2=
EXTT3=
EXTT4=
EXTT5=
EXTT6=
EXTT7=
EXTT8=
EXTT9=
EXTT10=
EXTT11=
EXTT12=
EXTT13=
EXTT14=
PLAYORDER=
